# xmcd CD database file
#
# Track frame offsets:
#	150
#	17870
#	35257
#	53092
#
# Disc length: 935 seconds
#
# Revision: 0
# Processed by: cddbd v1.5PL3 Copyright (c) Steve Scherf et al.
# Submitted via: CDex 1.51
#
DISCID=2803a504
DTITLE=Peachy - スノーパラダイス
DYEAR=2000
DGENRE=Pop
TTITLE0=スノーパラダイス
TTITLE1=tiny tiny X'mas
TTITLE2=スノーパラダイス (カラオケ)
TTITLE3=tiny tiny X'mas (カラオケ)
EXTD=YEAR: 2000
EXTT0=
EXTT1=
EXTT2=
EXTT3=
PLAYORDER=
